%TF.GenerationSoftware,KiCad,Pcbnew,9.0.6*%
%TF.CreationDate,2026-02-18T19:45:39+02:00*%
%TF.ProjectId,desk_mixer,6465736b-5f6d-4697-9865-722e6b696361,rev?*%
%TF.SameCoordinates,Original*%
%TF.FileFunction,Paste,Top*%
%TF.FilePolarity,Positive*%
%FSLAX46Y46*%
G04 Gerber Fmt 4.6, Leading zero omitted, Abs format (unit mm)*
G04 Created by KiCad (PCBNEW 9.0.6) date 2026-02-18 19:45:39*
%MOMM*%
%LPD*%
G01*
G04 APERTURE LIST*
%ADD10O,0.270000X1.500000*%
%ADD11O,1.500000X0.270000*%
%ADD12R,0.900000X1.500000*%
%ADD13R,0.900000X2.500000*%
%ADD14R,0.900000X1.800000*%
%ADD15R,0.900000X2.800000*%
%ADD16R,2.800000X0.900000*%
%ADD17R,1.800000X0.900000*%
%ADD18R,2.500000X0.900000*%
%ADD19R,1.500000X0.900000*%
%ADD20R,0.600000X1.550000*%
%ADD21R,1.200000X1.800000*%
%ADD22R,0.860000X0.810000*%
%ADD23R,0.300000X1.520000*%
%ADD24R,1.600000X2.000000*%
G04 APERTURE END LIST*
D10*
%TO.C,REF\u002A\u002A*%
X181250000Y-60250000D03*
X181750000Y-60250000D03*
X182250000Y-60250000D03*
X182750000Y-60250000D03*
X183250000Y-60250000D03*
X183750000Y-60250000D03*
X184250000Y-60250000D03*
X184750000Y-60250000D03*
X185250000Y-60250000D03*
X185750000Y-60250000D03*
X186250000Y-60250000D03*
X186750000Y-60250000D03*
D11*
X188250000Y-58750000D03*
X188250000Y-58250000D03*
X188250000Y-57750000D03*
X188250000Y-57250000D03*
X188250000Y-56750000D03*
X188250000Y-56250000D03*
X188250000Y-55750000D03*
X188250000Y-55250000D03*
X188250000Y-54750000D03*
X188250000Y-54250000D03*
X188250000Y-53750000D03*
X188250000Y-53250000D03*
D10*
X186750000Y-51750000D03*
X186250000Y-51750000D03*
X185750000Y-51750000D03*
X185250000Y-51750000D03*
X184750000Y-51750000D03*
X184250000Y-51750000D03*
X183750000Y-51750000D03*
X183250000Y-51750000D03*
X182750000Y-51750000D03*
X182250000Y-51750000D03*
X181750000Y-51750000D03*
X181250000Y-51750000D03*
D11*
X179750000Y-53250000D03*
X179750000Y-53750000D03*
X179750000Y-54250000D03*
X179750000Y-54750000D03*
X179750000Y-55250000D03*
X179750000Y-55750000D03*
X179750000Y-56250000D03*
X179750000Y-56750000D03*
X179750000Y-57250000D03*
X179750000Y-57750000D03*
X179750000Y-58250000D03*
X179750000Y-58750000D03*
%TD*%
D12*
%TO.C,REF\u002A\u002A*%
X195880000Y-55100121D03*
D13*
X194120000Y-55500121D03*
D14*
X194120000Y-58240121D03*
D15*
X195880000Y-57850121D03*
%TD*%
D12*
%TO.C,REF\u002A\u002A*%
X195880000Y-63671549D03*
D13*
X194120000Y-64071549D03*
D14*
X194120000Y-66811549D03*
D15*
X195880000Y-66421549D03*
%TD*%
D12*
%TO.C,REF\u002A\u002A*%
X195880000Y-89385835D03*
D13*
X194120000Y-89785835D03*
D14*
X194120000Y-92525835D03*
D15*
X195880000Y-92135835D03*
%TD*%
D12*
%TO.C,REF\u002A\u002A*%
X195880000Y-37957264D03*
D13*
X194120000Y-38357264D03*
D14*
X194120000Y-41097264D03*
D15*
X195880000Y-40707264D03*
%TD*%
D12*
%TO.C,REF\u002A\u002A*%
X195880000Y-29385835D03*
D13*
X194120000Y-29785835D03*
D14*
X194120000Y-32525835D03*
D15*
X195880000Y-32135835D03*
%TD*%
D12*
%TO.C,REF\u002A\u002A*%
X195880000Y-80814406D03*
D13*
X194120000Y-81214406D03*
D14*
X194120000Y-83954406D03*
D15*
X195880000Y-83564406D03*
%TD*%
D12*
%TO.C,REF\u002A\u002A*%
X195880000Y-72242978D03*
D13*
X194120000Y-72642978D03*
D14*
X194120000Y-75382978D03*
D15*
X195880000Y-74992978D03*
%TD*%
D12*
%TO.C,REF\u002A\u002A*%
X195880000Y-46528692D03*
D13*
X194120000Y-46928692D03*
D14*
X194120000Y-49668692D03*
D15*
X195880000Y-49278692D03*
%TD*%
%TO.C,REF\u002A\u002A*%
X155880000Y-32135835D03*
D14*
X154120000Y-32525835D03*
D13*
X154120000Y-29785835D03*
D12*
X155880000Y-29385835D03*
%TD*%
D15*
%TO.C,REF\u002A\u002A*%
X155880000Y-49278692D03*
D14*
X154120000Y-49668692D03*
D13*
X154120000Y-46928692D03*
D12*
X155880000Y-46528692D03*
%TD*%
D15*
%TO.C,REF\u002A\u002A*%
X155880000Y-83564406D03*
D14*
X154120000Y-83954406D03*
D13*
X154120000Y-81214406D03*
D12*
X155880000Y-80814406D03*
%TD*%
D15*
%TO.C,REF\u002A\u002A*%
X155880000Y-66421549D03*
D14*
X154120000Y-66811549D03*
D13*
X154120000Y-64071549D03*
D12*
X155880000Y-63671549D03*
%TD*%
D15*
%TO.C,REF\u002A\u002A*%
X155880000Y-57850121D03*
D14*
X154120000Y-58240121D03*
D13*
X154120000Y-55500121D03*
D12*
X155880000Y-55100121D03*
%TD*%
D15*
%TO.C,REF\u002A\u002A*%
X155880000Y-40707264D03*
D14*
X154120000Y-41097264D03*
D13*
X154120000Y-38357264D03*
D12*
X155880000Y-37957264D03*
%TD*%
D15*
%TO.C,REF\u002A\u002A*%
X155880000Y-74992978D03*
D14*
X154120000Y-75382978D03*
D13*
X154120000Y-72642978D03*
D12*
X155880000Y-72242978D03*
%TD*%
D15*
%TO.C,REF\u002A\u002A*%
X155880000Y-92135835D03*
D14*
X154120000Y-92525835D03*
D13*
X154120000Y-89785835D03*
D12*
X155880000Y-89385835D03*
%TD*%
D15*
%TO.C,REF\u002A\u002A*%
X135880000Y-49278692D03*
D14*
X134120000Y-49668692D03*
D13*
X134120000Y-46928692D03*
D12*
X135880000Y-46528692D03*
%TD*%
D15*
%TO.C,REF\u002A\u002A*%
X135880000Y-66421549D03*
D14*
X134120000Y-66811549D03*
D13*
X134120000Y-64071549D03*
D12*
X135880000Y-63671549D03*
%TD*%
D15*
%TO.C,REF\u002A\u002A*%
X135880000Y-32135835D03*
D14*
X134120000Y-32525835D03*
D13*
X134120000Y-29785835D03*
D12*
X135880000Y-29385835D03*
%TD*%
D15*
%TO.C,REF\u002A\u002A*%
X135880000Y-92135835D03*
D14*
X134120000Y-92525835D03*
D13*
X134120000Y-89785835D03*
D12*
X135880000Y-89385835D03*
%TD*%
D15*
%TO.C,REF\u002A\u002A*%
X135880000Y-57850121D03*
D14*
X134120000Y-58240121D03*
D13*
X134120000Y-55500121D03*
D12*
X135880000Y-55100121D03*
%TD*%
D15*
%TO.C,REF\u002A\u002A*%
X135880000Y-83564406D03*
D14*
X134120000Y-83954406D03*
D13*
X134120000Y-81214406D03*
D12*
X135880000Y-80814406D03*
%TD*%
D15*
%TO.C,REF\u002A\u002A*%
X135880000Y-74992978D03*
D14*
X134120000Y-75382978D03*
D13*
X134120000Y-72642978D03*
D12*
X135880000Y-72242978D03*
%TD*%
D15*
%TO.C,REF\u002A\u002A*%
X135880000Y-40707264D03*
D14*
X134120000Y-41097264D03*
D13*
X134120000Y-38357264D03*
D12*
X135880000Y-37957264D03*
%TD*%
D15*
%TO.C,REF\u002A\u002A*%
X175880000Y-83564406D03*
D14*
X174120000Y-83954406D03*
D13*
X174120000Y-81214406D03*
D12*
X175880000Y-80814406D03*
%TD*%
D15*
%TO.C,REF\u002A\u002A*%
X175880000Y-49278692D03*
D14*
X174120000Y-49668692D03*
D13*
X174120000Y-46928692D03*
D12*
X175880000Y-46528692D03*
%TD*%
D15*
%TO.C,REF\u002A\u002A*%
X175880000Y-66421549D03*
D14*
X174120000Y-66811549D03*
D13*
X174120000Y-64071549D03*
D12*
X175880000Y-63671549D03*
%TD*%
D15*
%TO.C,REF\u002A\u002A*%
X175880000Y-74992978D03*
D14*
X174120000Y-75382978D03*
D13*
X174120000Y-72642978D03*
D12*
X175880000Y-72242978D03*
%TD*%
D15*
%TO.C,REF\u002A\u002A*%
X175880000Y-32135835D03*
D14*
X174120000Y-32525835D03*
D13*
X174120000Y-29785835D03*
D12*
X175880000Y-29385835D03*
%TD*%
D15*
%TO.C,REF\u002A\u002A*%
X175880000Y-57850121D03*
D14*
X174120000Y-58240121D03*
D13*
X174120000Y-55500121D03*
D12*
X175880000Y-55100121D03*
%TD*%
D15*
%TO.C,REF\u002A\u002A*%
X175880000Y-40707264D03*
D14*
X174120000Y-41097264D03*
D13*
X174120000Y-38357264D03*
D12*
X175880000Y-37957264D03*
%TD*%
D15*
%TO.C,REF\u002A\u002A*%
X175880000Y-92135835D03*
D14*
X174120000Y-92525835D03*
D13*
X174120000Y-89785835D03*
D12*
X175880000Y-89385835D03*
%TD*%
D15*
%TO.C,REF\u002A\u002A*%
X216000000Y-74992978D03*
D14*
X214240000Y-75382978D03*
D13*
X214240000Y-72642978D03*
D12*
X216000000Y-72242978D03*
%TD*%
D15*
%TO.C,REF\u002A\u002A*%
X216000000Y-49278692D03*
D14*
X214240000Y-49668692D03*
D13*
X214240000Y-46928692D03*
D12*
X216000000Y-46528692D03*
%TD*%
D15*
%TO.C,REF\u002A\u002A*%
X216000000Y-40707264D03*
D14*
X214240000Y-41097264D03*
D13*
X214240000Y-38357264D03*
D12*
X216000000Y-37957264D03*
%TD*%
D15*
%TO.C,REF\u002A\u002A*%
X216000000Y-92135835D03*
D14*
X214240000Y-92525835D03*
D13*
X214240000Y-89785835D03*
D12*
X216000000Y-89385835D03*
%TD*%
D15*
%TO.C,REF\u002A\u002A*%
X216000000Y-83564406D03*
D14*
X214240000Y-83954406D03*
D13*
X214240000Y-81214406D03*
D12*
X216000000Y-80814406D03*
%TD*%
D15*
%TO.C,REF\u002A\u002A*%
X216000000Y-57850121D03*
D14*
X214240000Y-58240121D03*
D13*
X214240000Y-55500121D03*
D12*
X216000000Y-55100121D03*
%TD*%
D15*
%TO.C,REF\u002A\u002A*%
X216000000Y-32135835D03*
D14*
X214240000Y-32525835D03*
D13*
X214240000Y-29785835D03*
D12*
X216000000Y-29385835D03*
%TD*%
D15*
%TO.C,REF\u002A\u002A*%
X216000000Y-66421549D03*
D14*
X214240000Y-66811549D03*
D13*
X214240000Y-64071549D03*
D12*
X216000000Y-63671549D03*
%TD*%
D16*
%TO.C,REF\u002A\u002A*%
X244704814Y-48050000D03*
D17*
X244314814Y-46290000D03*
D18*
X247054814Y-46290000D03*
D19*
X247454814Y-48050000D03*
%TD*%
D16*
%TO.C,REF\u002A\u002A*%
X244704814Y-86150000D03*
D17*
X244314814Y-84390000D03*
D18*
X247054814Y-84390000D03*
D19*
X247454814Y-86150000D03*
%TD*%
D16*
%TO.C,REF\u002A\u002A*%
X244704814Y-67100000D03*
D17*
X244314814Y-65340000D03*
D18*
X247054814Y-65340000D03*
D19*
X247454814Y-67100000D03*
%TD*%
D16*
%TO.C,REF\u002A\u002A*%
X263754814Y-67100000D03*
D17*
X263364814Y-65340000D03*
D18*
X266104814Y-65340000D03*
D19*
X266504814Y-67100000D03*
%TD*%
D16*
%TO.C,REF\u002A\u002A*%
X263754814Y-86150000D03*
D17*
X263364814Y-84390000D03*
D18*
X266104814Y-84390000D03*
D19*
X266504814Y-86150000D03*
%TD*%
D16*
%TO.C,REF\u002A\u002A*%
X263754814Y-48050000D03*
D17*
X263364814Y-46290000D03*
D18*
X266104814Y-46290000D03*
D19*
X266504814Y-48050000D03*
%TD*%
D20*
%TO.C,Jmp1*%
X113600000Y-35200000D03*
X114600000Y-35200000D03*
X115600000Y-35200000D03*
X116600000Y-35200000D03*
X117600000Y-35200000D03*
D21*
X112300000Y-39080000D03*
X118900000Y-39080000D03*
%TD*%
D22*
%TO.C,5.1k*%
X112400000Y-30450000D03*
X112400000Y-31950000D03*
%TD*%
D23*
%TO.C,USB*%
X118550000Y-28590000D03*
X117700000Y-28590000D03*
X117100000Y-28590000D03*
X116500000Y-28590000D03*
X115900000Y-28590000D03*
X115300000Y-28590000D03*
X114700000Y-28590000D03*
X114100000Y-28590000D03*
X113500000Y-28590000D03*
X112650000Y-28590000D03*
D24*
X121350000Y-27240000D03*
X109850000Y-27240000D03*
%TD*%
D22*
%TO.C,5.1k*%
X120200000Y-30300000D03*
X120200000Y-31800000D03*
%TD*%
M02*
