%TF.GenerationSoftware,KiCad,Pcbnew,9.0.6*%
%TF.CreationDate,2026-02-18T19:45:39+02:00*%
%TF.ProjectId,desk_mixer,6465736b-5f6d-4697-9865-722e6b696361,rev?*%
%TF.SameCoordinates,Original*%
%TF.FileFunction,Copper,L2,Bot*%
%TF.FilePolarity,Positive*%
%FSLAX46Y46*%
G04 Gerber Fmt 4.6, Leading zero omitted, Abs format (unit mm)*
G04 Created by KiCad (PCBNEW 9.0.6) date 2026-02-18 19:45:39*
%MOMM*%
%LPD*%
G01*
G04 APERTURE LIST*
G04 Aperture macros list*
%AMRoundRect*
0 Rectangle with rounded corners*
0 $1 Rounding radius*
0 $2 $3 $4 $5 $6 $7 $8 $9 X,Y pos of 4 corners*
0 Add a 4 corners polygon primitive as box body*
4,1,4,$2,$3,$4,$5,$6,$7,$8,$9,$2,$3,0*
0 Add four circle primitives for the rounded corners*
1,1,$1+$1,$2,$3*
1,1,$1+$1,$4,$5*
1,1,$1+$1,$6,$7*
1,1,$1+$1,$8,$9*
0 Add four rect primitives between the rounded corners*
20,1,$1+$1,$2,$3,$4,$5,0*
20,1,$1+$1,$4,$5,$6,$7,0*
20,1,$1+$1,$6,$7,$8,$9,0*
20,1,$1+$1,$8,$9,$2,$3,0*%
G04 Aperture macros list end*
%TA.AperFunction,NonConductor*%
%ADD10C,0.200000*%
%TD*%
%TA.AperFunction,ComponentPad*%
%ADD11RoundRect,0.228600X0.533400X-0.533400X0.533400X0.533400X-0.533400X0.533400X-0.533400X-0.533400X0*%
%TD*%
%TA.AperFunction,WasherPad*%
%ADD12C,1.800000*%
%TD*%
%TA.AperFunction,SMDPad,CuDef*%
%ADD13R,2.900000X2.500000*%
%TD*%
%TA.AperFunction,ComponentPad*%
%ADD14C,3.000000*%
%TD*%
%TA.AperFunction,ComponentPad*%
%ADD15RoundRect,0.228600X-0.533400X-0.533400X0.533400X-0.533400X0.533400X0.533400X-0.533400X0.533400X0*%
%TD*%
%TA.AperFunction,ComponentPad*%
%ADD16O,1.200000X2.200000*%
%TD*%
%TA.AperFunction,ViaPad*%
%ADD17C,0.600000*%
%TD*%
%TA.AperFunction,Conductor*%
%ADD18C,0.200000*%
%TD*%
G04 APERTURE END LIST*
D10*
X127600000Y-16350000D02*
X280700000Y-16350000D01*
X280700000Y-106250000D01*
X127600000Y-106250000D01*
X127600000Y-16350000D01*
D11*
%TO.P,S2,6*%
%TO.N,N/C*%
X166535000Y-24242263D03*
%TO.P,S2,5*%
X161455000Y-24242263D03*
%TO.P,S2,4*%
X166535000Y-93242263D03*
%TO.P,S2,3*%
X163995000Y-93242263D03*
%TO.P,S2,2*%
X161455000Y-93242263D03*
%TO.P,S2,1*%
X158915000Y-93242263D03*
D12*
%TO.P,S2,*%
%TO.N,*%
X162725000Y-36242263D03*
X162725000Y-83242263D03*
%TD*%
D11*
%TO.P,S4,6*%
%TO.N,N/C*%
X206785000Y-24242263D03*
%TO.P,S4,5*%
X201705000Y-24242263D03*
%TO.P,S4,4*%
X206785000Y-93242263D03*
%TO.P,S4,3*%
X204245000Y-93242263D03*
%TO.P,S4,2*%
X201705000Y-93242263D03*
%TO.P,S4,1*%
X199165000Y-93242263D03*
D12*
%TO.P,S4,*%
%TO.N,*%
X202975000Y-36242263D03*
X202975000Y-83242263D03*
%TD*%
D11*
%TO.P,S5,6*%
%TO.N,N/C*%
X226910000Y-24242263D03*
%TO.P,S5,5*%
X221830000Y-24242263D03*
%TO.P,S5,4*%
X226910000Y-93242263D03*
%TO.P,S5,3*%
X224370000Y-93242263D03*
%TO.P,S5,2*%
X221830000Y-93242263D03*
%TO.P,S5,1*%
X219290000Y-93242263D03*
D12*
%TO.P,S5,*%
%TO.N,*%
X223100000Y-36242263D03*
X223100000Y-83242263D03*
%TD*%
D11*
%TO.P,S1,6*%
%TO.N,N/C*%
X146410000Y-24242263D03*
%TO.P,S1,5*%
X141330000Y-24242263D03*
%TO.P,S1,4*%
X146410000Y-93242263D03*
%TO.P,S1,3*%
X143870000Y-93242263D03*
%TO.P,S1,2*%
X141330000Y-93242263D03*
%TO.P,S1,1*%
X138790000Y-93242263D03*
D12*
%TO.P,S1,*%
%TO.N,*%
X142600000Y-36242263D03*
X142600000Y-83242263D03*
%TD*%
D11*
%TO.P,S3,6*%
%TO.N,N/C*%
X186660000Y-24242263D03*
%TO.P,S3,5*%
X181580000Y-24242263D03*
%TO.P,S3,4*%
X186660000Y-93242263D03*
%TO.P,S3,3*%
X184120000Y-93242263D03*
%TO.P,S3,2*%
X181580000Y-93242263D03*
%TO.P,S3,1*%
X179040000Y-93242263D03*
D12*
%TO.P,S3,*%
%TO.N,*%
X182850000Y-36242263D03*
X182850000Y-83242263D03*
%TD*%
D13*
%TO.P,Kalih,2*%
%TO.N,N/C*%
X240044814Y-57570000D03*
%TO.P,Kalih,1*%
X253484814Y-55030000D03*
D14*
%TO.P,Kalih,*%
%TO.N,*%
X243594814Y-57570000D03*
X249944814Y-55030000D03*
%TD*%
D13*
%TO.P,Kalih,2*%
%TO.N,N/C*%
X240044814Y-95670000D03*
%TO.P,Kalih,1*%
X253484814Y-93130000D03*
D14*
%TO.P,Kalih,*%
%TO.N,*%
X243594814Y-95670000D03*
X249944814Y-93130000D03*
%TD*%
D13*
%TO.P,Kalih,2*%
%TO.N,N/C*%
X240044814Y-76620000D03*
%TO.P,Kalih,1*%
X253484814Y-74080000D03*
D14*
%TO.P,Kalih,*%
%TO.N,*%
X243594814Y-76620000D03*
X249944814Y-74080000D03*
%TD*%
D13*
%TO.P,Kalih,2*%
%TO.N,N/C*%
X259094814Y-76620000D03*
%TO.P,Kalih,1*%
X272534814Y-74080000D03*
D14*
%TO.P,Kalih,*%
%TO.N,*%
X262644814Y-76620000D03*
X268994814Y-74080000D03*
%TD*%
D13*
%TO.P,Kalih,2*%
%TO.N,N/C*%
X259094814Y-95670000D03*
%TO.P,Kalih,1*%
X272534814Y-93130000D03*
D14*
%TO.P,Kalih,*%
%TO.N,*%
X262644814Y-95670000D03*
X268994814Y-93130000D03*
%TD*%
D13*
%TO.P,Kalih,2*%
%TO.N,N/C*%
X259094814Y-57570000D03*
%TO.P,Kalih,1*%
X272534814Y-55030000D03*
D14*
%TO.P,Kalih,*%
%TO.N,*%
X262644814Y-57570000D03*
X268994814Y-55030000D03*
%TD*%
D15*
%TO.P,D1,4*%
%TO.N,N/C*%
X259254814Y-19199527D03*
%TO.P,D1,3*%
X256714814Y-19199527D03*
%TO.P,D1,2*%
X254174814Y-19199527D03*
%TO.P,D1,1*%
X251634814Y-19199527D03*
%TD*%
D16*
%TO.P,USB,13*%
%TO.N,N/C*%
X110580000Y-23010000D03*
%TO.P,USB,14*%
X120620000Y-23010000D03*
%TD*%
D17*
%TO.N,*%
X113000000Y-33000000D03*
X119000000Y-32000000D03*
X117000000Y-32000000D03*
X119000000Y-30000000D03*
X116200000Y-33000000D03*
X116000000Y-30000000D03*
%TD*%
D18*
%TO.N,*%
X119000000Y-30000000D02*
X116000000Y-30000000D01*
X117000000Y-32000000D02*
X119000000Y-32000000D01*
X113000000Y-33000000D02*
X116200000Y-33000000D01*
%TD*%
M02*
