%TF.GenerationSoftware,KiCad,Pcbnew,9.0.6*%
%TF.CreationDate,2026-02-18T19:45:39+02:00*%
%TF.ProjectId,desk_mixer,6465736b-5f6d-4697-9865-722e6b696361,rev?*%
%TF.SameCoordinates,Original*%
%TF.FileFunction,Soldermask,Bot*%
%TF.FilePolarity,Negative*%
%FSLAX46Y46*%
G04 Gerber Fmt 4.6, Leading zero omitted, Abs format (unit mm)*
G04 Created by KiCad (PCBNEW 9.0.6) date 2026-02-18 19:45:39*
%MOMM*%
%LPD*%
G01*
G04 APERTURE LIST*
G04 Aperture macros list*
%AMRoundRect*
0 Rectangle with rounded corners*
0 $1 Rounding radius*
0 $2 $3 $4 $5 $6 $7 $8 $9 X,Y pos of 4 corners*
0 Add a 4 corners polygon primitive as box body*
4,1,4,$2,$3,$4,$5,$6,$7,$8,$9,$2,$3,0*
0 Add four circle primitives for the rounded corners*
1,1,$1+$1,$2,$3*
1,1,$1+$1,$4,$5*
1,1,$1+$1,$6,$7*
1,1,$1+$1,$8,$9*
0 Add four rect primitives between the rounded corners*
20,1,$1+$1,$2,$3,$4,$5,0*
20,1,$1+$1,$4,$5,$6,$7,0*
20,1,$1+$1,$6,$7,$8,$9,0*
20,1,$1+$1,$8,$9,$2,$3,0*%
G04 Aperture macros list end*
%ADD10RoundRect,0.228600X0.533400X-0.533400X0.533400X0.533400X-0.533400X0.533400X-0.533400X-0.533400X0*%
%ADD11C,1.800000*%
%ADD12C,1.900000*%
%ADD13C,5.000000*%
%ADD14O,1.500000X2.000000*%
%ADD15R,2.900000X2.500000*%
%ADD16C,3.000000*%
%ADD17RoundRect,0.228600X-0.533400X-0.533400X0.533400X-0.533400X0.533400X0.533400X-0.533400X0.533400X0*%
%ADD18C,2.200000*%
%ADD19O,1.200000X2.200000*%
G04 APERTURE END LIST*
D10*
%TO.C,S2*%
X166535000Y-24242263D03*
X161455000Y-24242263D03*
X166535000Y-93242263D03*
X163995000Y-93242263D03*
X161455000Y-93242263D03*
X158915000Y-93242263D03*
D11*
X162725000Y-36242263D03*
X162725000Y-83242263D03*
%TD*%
D10*
%TO.C,S4*%
X206785000Y-24242263D03*
X201705000Y-24242263D03*
X206785000Y-93242263D03*
X204245000Y-93242263D03*
X201705000Y-93242263D03*
X199165000Y-93242263D03*
D11*
X202975000Y-36242263D03*
X202975000Y-83242263D03*
%TD*%
D10*
%TO.C,S5*%
X226910000Y-24242263D03*
X221830000Y-24242263D03*
X226910000Y-93242263D03*
X224370000Y-93242263D03*
X221830000Y-93242263D03*
X219290000Y-93242263D03*
D11*
X223100000Y-36242263D03*
X223100000Y-83242263D03*
%TD*%
D10*
%TO.C,S1*%
X146410000Y-24242263D03*
X141330000Y-24242263D03*
X146410000Y-93242263D03*
X143870000Y-93242263D03*
X141330000Y-93242263D03*
X138790000Y-93242263D03*
D11*
X142600000Y-36242263D03*
X142600000Y-83242263D03*
%TD*%
D10*
%TO.C,S3*%
X186660000Y-24242263D03*
X181580000Y-24242263D03*
X186660000Y-93242263D03*
X184120000Y-93242263D03*
X181580000Y-93242263D03*
X179040000Y-93242263D03*
D11*
X182850000Y-36242263D03*
X182850000Y-83242263D03*
%TD*%
D12*
%TO.C,REF\u002A\u002A*%
X251419814Y-52000000D03*
D13*
X245919814Y-52000000D03*
D14*
X240919814Y-46850000D03*
D12*
X240419814Y-52000000D03*
%TD*%
D15*
%TO.C,Kalih*%
X240044814Y-57570000D03*
X253484814Y-55030000D03*
D16*
X243594814Y-57570000D03*
X249944814Y-55030000D03*
%TD*%
D15*
%TO.C,Kalih*%
X240044814Y-95670000D03*
X253484814Y-93130000D03*
D16*
X243594814Y-95670000D03*
X249944814Y-93130000D03*
%TD*%
D12*
%TO.C,REF\u002A\u002A*%
X251419814Y-90100000D03*
D13*
X245919814Y-90100000D03*
D14*
X240919814Y-84950000D03*
D12*
X240419814Y-90100000D03*
%TD*%
%TO.C,REF\u002A\u002A*%
X251419814Y-71050000D03*
D13*
X245919814Y-71050000D03*
D14*
X240919814Y-65900000D03*
D12*
X240419814Y-71050000D03*
%TD*%
D15*
%TO.C,Kalih*%
X240044814Y-76620000D03*
X253484814Y-74080000D03*
D16*
X243594814Y-76620000D03*
X249944814Y-74080000D03*
%TD*%
D12*
%TO.C,REF\u002A\u002A*%
X270469814Y-71050000D03*
D13*
X264969814Y-71050000D03*
D14*
X259969814Y-65900000D03*
D12*
X259469814Y-71050000D03*
%TD*%
D15*
%TO.C,Kalih*%
X259094814Y-76620000D03*
X272534814Y-74080000D03*
D16*
X262644814Y-76620000D03*
X268994814Y-74080000D03*
%TD*%
D12*
%TO.C,REF\u002A\u002A*%
X270469814Y-90100000D03*
D13*
X264969814Y-90100000D03*
D14*
X259969814Y-84950000D03*
D12*
X259469814Y-90100000D03*
%TD*%
D15*
%TO.C,Kalih*%
X259094814Y-95670000D03*
X272534814Y-93130000D03*
D16*
X262644814Y-95670000D03*
X268994814Y-93130000D03*
%TD*%
D12*
%TO.C,REF\u002A\u002A*%
X270469814Y-52000000D03*
D13*
X264969814Y-52000000D03*
D14*
X259969814Y-46850000D03*
D12*
X259469814Y-52000000D03*
%TD*%
D15*
%TO.C,Kalih*%
X259094814Y-57570000D03*
X272534814Y-55030000D03*
D16*
X262644814Y-57570000D03*
X268994814Y-55030000D03*
%TD*%
D17*
%TO.C,D1*%
X259254814Y-19199527D03*
X256714814Y-19199527D03*
X254174814Y-19199527D03*
X251634814Y-19199527D03*
%TD*%
D18*
%TO.C,REF\u002A\u002A*%
X275900000Y-22199866D03*
%TD*%
%TO.C,REF\u002A\u002A*%
X275900000Y-103000000D03*
%TD*%
%TO.C,REF\u002A\u002A*%
X234000000Y-103000000D03*
%TD*%
%TO.C,REF\u002A\u002A*%
X234000000Y-22199866D03*
%TD*%
%TO.C,REF\u002A\u002A*%
X132000000Y-103000000D03*
%TD*%
%TO.C,REF\u002A\u002A*%
X132000000Y-22199866D03*
%TD*%
%TO.C,REF\u002A\u002A*%
X123800000Y-24000000D03*
%TD*%
D19*
%TO.C,USB*%
X110580000Y-23010000D03*
X120620000Y-23010000D03*
%TD*%
D18*
%TO.C,REF\u002A\u002A*%
X107400000Y-24000000D03*
%TD*%
%TO.C,REF\u002A\u002A*%
X123900000Y-38200000D03*
%TD*%
%TO.C,REF\u002A\u002A*%
X107500000Y-38200000D03*
%TD*%
M02*
