<?xml version="1.0" encoding="UTF-8"?>
<svg id="Layer_2" data-name="Layer 2" xmlns="http://www.w3.org/2000/svg" viewBox="0 0 7.77 7.78">
  <defs>
    <style>
      .cls-1 {
        fill: #757575;
        stroke: #757575;
        stroke-miterlimit: 10;
      }
    </style>
  </defs>
  <g id="Layer_1-2" data-name="Layer 1">
    <g id="top_bar" data-name="top bar">
      <g id="window_actions" data-name="window actions">
        <path class="cls-1" d="m3.44,3.89c-.07-.07-.13-.13-.19-.19-.69-.69-1.38-1.38-2.07-2.07-.2-.2-.39-.39-.59-.59-.09-.09-.12-.24-.07-.35.06-.12.19-.2.32-.18.07,0,.13.04.18.09.22.22.44.44.66.66.53.53,1.06,1.06,1.58,1.58.2.2.39.39.59.59,0,0,.02.02.02.02.08-.07.15-.15.23-.22.43-.43.87-.87,1.3-1.3.41-.41.83-.83,1.24-1.24.05-.05.1-.11.16-.14.14-.08.3-.03.4.1.09.12.07.29-.04.4-.22.22-.44.44-.66.66-.62.62-1.23,1.23-1.85,1.85-.11.11-.23.23-.34.34.01.01.03.03.04.04.22.22.43.43.65.65.37.37.73.73,1.1,1.1.35.35.69.69,1.04,1.04.08.08.12.16.11.27-.01.2-.25.37-.46.25-.04-.02-.07-.05-.1-.08-.46-.46-.92-.92-1.38-1.38-.33-.34-.67-.67-1-1.01-.14-.14-.28-.28-.42-.42,0,0,0,0-.02,0-.03.03-.05.06-.08.09-.31.31-.62.63-.94.94-.33.33-.66.66-.99.99-.27.27-.54.54-.8.8-.06.06-.12.1-.19.12-.18.04-.36-.11-.37-.29,0-.1.03-.18.1-.25.57-.57,1.14-1.13,1.7-1.7.35-.36.71-.71,1.06-1.07.02-.02.05-.04.08-.07Z"/>
      </g>
    </g>
  </g>
</svg>