<?xml version="1.0" encoding="UTF-8"?>
<svg id="Layer_2" data-name="Layer 2" xmlns="http://www.w3.org/2000/svg" viewBox="0 0 15 8.46">
  <defs>
    <style>
      .cls-1 {
        fill: #fbfbfb;
      }
    </style>
  </defs>
  <g id="Layer_1-2" data-name="Layer 1">
    <path class="cls-1" d="m7.54,8.46c-.13,0-.24,0-.34,0-.04,0-.09-.03-.13-.04-.02,0-.05-.03-.07-.03-.05,0-.09-.03-.13-.07-.48-.4-.89-.87-1.34-1.3-.21-.2-.41-.41-.62-.62-.17-.17-.34-.34-.51-.51-.16-.16-.33-.32-.49-.48-.13-.13-.26-.27-.39-.4-.13-.13-.26-.26-.39-.39-.1-.1-.19-.19-.28-.29-.11-.11-.21-.21-.32-.31-.09-.09-.18-.19-.27-.28-.11-.11-.23-.22-.34-.34-.09-.09-.19-.19-.28-.29-.11-.11-.22-.22-.33-.32-.1-.1-.19-.19-.29-.29-.11-.11-.22-.21-.32-.32-.07-.07-.14-.15-.21-.22-.04-.04-.08-.07-.11-.11-.05-.05-.09-.1-.13-.16,0,0,0,0,0-.01-.06-.02-.07-.08-.09-.13,0-.02-.01-.03-.03-.04-.04-.03-.04-.06-.04-.1,0-.05-.01-.11-.03-.16-.05-.15-.04-.29,0-.43,0-.03.01-.05.02-.08,0-.06,0-.11.06-.15.02-.01.02-.05.03-.07,0-.01,0-.03.01-.04.07-.08.15-.15.22-.22,0,0,.02-.02.02-.03,0,0,0-.02,0-.02.08-.02.11-.11.19-.11.04,0,.09-.02.11-.06,0,0,.03-.01.04-.01C.85,0,.95,0,1.04,0c.11,0,.22,0,.33,0,.02,0,.05.02.07.03.04.02.08.03.12.05.03.01.06.03.08.05.04.03.08.06.12.09.13.12.26.25.38.37.07.07.14.15.22.22.19.19.38.38.57.57.56.56,1.12,1.12,1.68,1.67.23.23.47.47.7.7.14.14.29.29.43.43.16.16.32.32.47.48.13.13.26.25.38.38.13.13.27.27.4.41.1.1.21.19.3.3.05.05.12.09.14.17,0,0,.02.01.03.01.02,0,.04,0,.05,0,.03,0,.06,0,.07-.04,0,0,.01-.02.02-.02.03-.03.05-.06.08-.08.04-.04.09-.08.14-.13.06-.06.12-.13.18-.19.05-.05.1-.1.15-.16.07-.08.15-.15.22-.23.07-.07.15-.14.22-.21.03-.03.06-.06.09-.1.09-.09.18-.18.27-.27.07-.07.14-.14.21-.21.07-.07.14-.14.21-.21.07-.07.14-.15.21-.22.07-.07.14-.14.22-.21.04-.03.07-.07.1-.1.14-.15.29-.29.43-.44.13-.13.26-.26.39-.39.27-.27.54-.54.81-.81.28-.28.56-.56.84-.84.19-.19.37-.37.56-.56.1-.1.2-.21.31-.3.07-.06.13-.14.24-.14.01,0,.03-.01.04-.02.03-.04.08-.04.12-.04.17,0,.35,0,.52,0,.04,0,.07.02.11.04.01,0,.02.02.04.02.09.01.16.07.23.12.04.03.08.07.12.11.02.02.04.03.05.05.01.01.03.03.03.04,0,.03.02.05.05.05.03,0,.04.02.05.05,0,.05.01.09.06.12.01,0,.01.03.02.04.01.07.02.14.04.21.03.13.03.25,0,.38-.01.04-.02.09-.03.13,0,.05-.01.1-.05.13-.02.02-.02.05-.03.07,0,.02,0,.04-.02.05-.08.08-.15.16-.23.24-.16.17-.33.33-.5.5-.08.08-.15.16-.23.24-.12.12-.24.24-.36.36-.14.14-.28.29-.43.43-.12.12-.24.24-.36.36-.14.14-.28.28-.42.43-.12.12-.25.24-.37.37-.14.14-.28.28-.41.42-.13.13-.27.26-.4.39-.27.27-.53.53-.8.8-.4.4-.8.8-1.19,1.19-.27.27-.54.54-.81.81-.05.05-.12.1-.18.14-.01,0-.03.02-.03.03-.02.05-.06.05-.11.05-.03,0-.08-.01-.08.05,0,0-.03.02-.05.02-.12,0-.24.01-.34.02Z"/>
  </g>
</svg>