<?xml version="1.0" encoding="UTF-8"?>
<svg id="Layer_2" data-name="Layer 2" xmlns="http://www.w3.org/2000/svg" viewBox="0 0 174.78 219.23">
  <defs>
    <style>
      .cls-1 {
        fill: #fff;
      }
    </style>
  </defs>
  <g id="Layer_1-2" data-name="Layer 1">
    <g>
      <path class="cls-1" d="m174.78,161.63c.07,6.17-.55,13.05-2.51,19.75-1.42,4.87-3.55,9.38-6.86,13.26-5.81,6.81-13.73,8.97-22.23,6.2-4.09-1.33-7.59-3.66-11-6.18-2.84-2.09-5.66-4.21-9.01-5.46-4.27-1.59-7.62-.72-10.59,2.74-2.27,2.65-3.59,5.84-5.03,8.96-2.23,4.83-4.6,9.58-8.44,13.4-3.86,3.84-8.42,5.71-13.89,4.61-4.27-.85-7.37-3.53-9.43-7.16-2.51-4.42-4.61-9.07-6.83-13.65-1.63-3.36-3.18-6.75-5.61-9.64-2.18-2.6-4.8-4.47-8.28-4.78-3.16-.28-6.17.39-8.74,2.22-2.35,1.67-4.51,3.63-6.67,5.56-2.14,1.9-4.09,4.02-6.28,5.85-3.81,3.18-8.19,4.67-13.19,3.66-4.16-.84-7.42-3.21-10.12-6.37-4.19-4.91-6.5-10.73-8.04-16.91-1.42-5.71-1.89-11.52-2-17.38-.17-8.8,1.33-17.4,2.81-26.04,1.88-10.99,5.67-21.45,8.37-32.2,1.9-7.59,2.81-15.31,3.5-23.08,1.49-16.76,6.57-32.34,15.68-46.53,6.11-9.53,13.86-17.45,23.62-23.29,7.79-4.66,16.22-7.53,25.21-8.62,20.96-2.54,39.08,3.71,54.32,18.17,11.96,11.35,19.25,25.45,23.01,41.35,1.45,6.15,2.07,12.5,3.07,18.76.61,3.8,1.31,7.6,1.8,11.42,1.11,8.55,4.11,16.63,6.04,24.97,1.75,7.58,3.85,15.09,5.32,22.72,1.45,7.53,2,15.21,2.02,23.69Zm-58.4-14.41c.73,1.12,1.42,2.04,1.97,3.04,2.28,4.11,4.86,8.01,8.08,11.46,3.04,3.27,6.33,6.23,10.52,7.98,3.88,1.62,7.76,2.14,11.55-.23,2.9-1.82,4.63-4.57,5.85-7.68,2.19-5.58,2.57-11.45,2.62-17.36.1-10.26-1.57-20.32-3.48-30.35-2.04-10.74-4.1-21.49-6.11-32.24-1.48-7.94-2.96-15.88-5.49-23.58-4.02-12.2-10.37-22.93-20.01-31.56-12.02-10.76-26.11-14.92-42.01-12.62-9.53,1.38-17.89,5.62-25.31,11.71-11.75,9.65-19.08,22.11-23.21,36.6-2.4,8.42-3.05,17.12-4.01,25.77-.71,6.38-1.37,12.8-2.66,19.08-1.65,8.02-3.91,15.92-5.91,23.88-2.07,8.21-3.29,16.51-2.34,25,.39,3.44,1.11,6.8,3.18,9.7,2.11,2.95,4.87,4.75,8.59,4.03,2.24-.43,4.56-1.08,6.51-2.21,8.24-4.76,14.17-11.9,19.36-19.69,1.9-2.85,3.57-5.86,5.52-9.08.09,1.29.1,2.3.23,3.3,1.25,9.88,3.6,19.47,7.75,28.55,2.54,5.54,5.59,10.76,10.45,14.65,1.66,1.33,3.47,2.44,5.64,2.7,4.96.58,9.2-1.14,12.99-4.2,5.64-4.56,9.53-10.45,12.61-16.91,2.98-6.24,5.18-12.77,7.1-19.73Z"/>
      <path class="cls-1" d="m66.34,78.72c14.26,3.79,28.53,3.61,42.82.16.68,7.5-2.51,14.9-10.18,19.94-7.21,4.73-16.65,4.4-23.62-.62-5.93-4.27-10.42-13.9-9.02-19.47Z"/>
      <path class="cls-1" d="m53.52,57.67c-.21-6.58,5.13-10.55,10.29-10.7,5.99-.18,11.13,4.96,11.11,10.89-.01,5.79-4.86,10.66-10.61,10.65-6.28,0-10.79-4.54-10.79-10.84Z"/>
      <path class="cls-1" d="m121.56,57.73c-.16,5.91-4.27,10.6-10.72,10.84-5.67.21-10.52-4.92-10.49-10.72.02-5.92,4.93-10.79,10.79-10.72,5.82.07,10.46,4.8,10.42,10.6Z"/>
    </g>
  </g>
</svg>