<?xml version="1.0" encoding="UTF-8"?>
<svg id="Layer_2" data-name="Layer 2" xmlns="http://www.w3.org/2000/svg" viewBox="0 0 159.04 128.63">
  <g id="Layer_1-2" data-name="Layer 1">
    <g>
      <path d="m79.38.01c19.2,0,38.41,0,57.61,0,11.44,0,20.33,7.62,21.94,18.87.12.81.1,1.65.1,2.48,0,28.57,0,57.13,0,85.7,0,12.35-9.76,21.76-22.16,21.57-11.91-.18-23.83-.12-35.74-.12-24.7-.01-49.41,0-74.11,0-2.79,0-5.6.2-8.36-.08C8.34,127.39.02,118.14.01,107.81,0,78.87,0,49.93,0,21,.01,9.68,9.63.05,21.02.02c19.45-.04,38.91-.01,58.36-.01Zm.21,118h0c19.12,0,38.25-.07,57.37.02,6.47.03,11.42-4.9,11.4-11.33-.11-28.28-.04-56.56-.05-84.84,0-6.68-4.47-11.19-11.19-11.19-38.46-.02-76.91,0-115.37.01-1.03,0-2.09.12-3.08.38-4.84,1.26-7.94,5.32-7.95,10.58-.03,24.76-.02,49.52-.02,74.28,0,3.93-.02,7.87.04,11.8.05,3.11,1.39,5.66,3.74,7.69,2.26,1.95,4.94,2.6,7.87,2.6,19.08-.02,38.17,0,57.25,0Z"/>
      <path d="m79.49,101.2c-9,0-18,0-27,0-.67,0-1.34,0-2-.09-1.72-.21-2.89-1.58-2.91-3.48-.04-2.44-.03-4.89,0-7.33.04-2.55,1.43-3.87,4.01-3.87,9.04.02,18.08.05,27.12.06,9.33,0,18.66-.02,28-.04,3.4,0,4.68,1.24,4.71,4.63.02,1.99.03,3.97.02,5.96,0,2.84-1.2,4.11-4.09,4.13-7.87.04-15.75.02-23.62.02-1.42,0-2.83,0-4.25,0Z"/>
      <path d="m72.01,64.33c0,1.78,0,3.56,0,5.34,0,1.35-.58,2.06-1.91,2.08-3.54.05-7.08.05-10.62,0-1.34-.02-1.94-.74-1.95-2.07-.01-3.56-.02-7.12,0-10.68,0-1.37.54-2.02,1.95-2.05,3.54-.07,7.08-.07,10.62,0,1.35.02,1.91.73,1.91,2.06,0,1.78,0,3.56,0,5.34Z"/>
      <path d="m101.56,64.44c0,1.7.01,3.39,0,5.09-.01,1.62-.47,2.14-2.15,2.22-1.66.08-3.33.03-5,.03-1.67,0-3.33.02-5,0-1.69-.03-2.38-.68-2.39-2.34-.03-3.48-.03-6.95,0-10.43.01-1.34.63-2.05,1.97-2.07,3.54-.06,7.08-.07,10.62,0,1.4.02,1.91.65,1.93,2.05.02,1.82,0,3.64,0,5.46,0,0,0,0,.01,0Z"/>
      <path d="m42.31,64.3c0,1.78.02,3.56,0,5.33-.02,1.49-.52,2.09-2,2.11-3.45.05-6.91.04-10.36-.03-1.57-.03-2.1-.62-2.11-2.16-.03-3.51-.03-7.03,0-10.54.01-1.41.52-2.04,1.93-2.07,3.58-.08,7.16-.06,10.73-.02,1.16.02,1.82.68,1.81,1.91-.02,1.82,0,3.64,0,5.46Z"/>
      <path d="m131.26,64.34c0,1.74.01,3.47,0,5.21-.01,1.51-.46,2.15-1.94,2.18-3.57.07-7.15.04-10.73-.02-1.17-.02-1.8-.72-1.8-1.93,0-3.68,0-7.35,0-11.03,0-1.13.7-1.75,1.7-1.77,3.7-.07,7.4-.08,11.1,0,1.09.02,1.68.76,1.67,1.92-.03,1.82,0,3.64,0,5.45,0,0,0,0,.01,0Z"/>
      <path d="m42.31,93.82c0,1.78.02,3.56,0,5.34-.03,1.51-.44,1.98-1.91,1.99-3.5.04-6.99.04-10.49,0-1.61-.02-2-.39-2.03-1.99-.06-3.52-.06-7.03-.02-10.55.02-1.62.6-2.17,2.22-2.17,3.33-.01,6.66,0,9.99.04,1.78.02,2.17.46,2.18,2.25.01,1.7,0,3.39,0,5.09.02,0,.04,0,.06,0Z"/>
      <path d="m42.31,34.78c0,1.78.02,3.55,0,5.33-.02,1.57-.54,2.09-2.12,2.09-3.45.01-6.9-.01-10.35-.02-1.19,0-1.93-.52-1.94-1.76-.03-3.76-.02-7.52-.02-11.28,0-1.06.57-1.61,1.61-1.62,3.7-.02,7.4-.03,11.1-.02,1.18,0,1.72.64,1.71,1.81-.02,1.82,0,3.64,0,5.46,0,0,0,0,.01,0Z"/>
      <path d="m101.56,34.91c0,1.74.01,3.47,0,5.21-.01,1.51-.52,2.06-1.99,2.08-3.53.03-7.06.01-10.59.02-1.26,0-1.87-.77-1.89-1.87-.07-3.68-.08-7.35-.02-11.03.02-1.27.72-1.83,2.03-1.84,3.45-.01,6.9-.01,10.35.03,1.66.02,2.06.44,2.1,2.07.04,1.78,0,3.55,0,5.33h.01Z"/>
      <path d="m72,34.79c0,1.78.01,3.56,0,5.34-.01,1.43-.61,2.07-2.04,2.07-3.45,0-6.91-.03-10.36-.1-1.6-.03-1.97-.39-2-2-.06-3.56-.08-7.12-.07-10.68,0-1.41.48-1.9,1.87-1.92,3.54-.05,7.08-.06,10.62-.03,1.48.01,1.97.6,1.98,2.09.01,1.74,0,3.48,0,5.21Z"/>
      <path d="m123.97,101.16c-1.75,0-3.5.04-5.25-.01-1.53-.04-1.91-.44-1.92-1.97-.03-3.56-.03-7.12-.01-10.67,0-1.47.57-2.04,2.05-2.05,3.42-.02,6.83,0,10.25.05,1.66.03,2.07.47,2.09,2.1.05,3.52.07,7.03.08,10.55,0,1.47-.45,1.96-1.91,2-1.79.05-3.58.01-5.37,0Z"/>
      <path d="m131.24,34.77c0,1.74,0,3.47,0,5.21,0,1.63-.53,2.21-2.13,2.22-3.37,0-6.74,0-10.1-.05-1.64-.02-2.11-.43-2.14-2.06-.07-3.59-.04-7.19-.07-10.78,0-1.25.64-1.8,1.85-1.8,3.54,0,7.07-.05,10.61,0,1.58.02,1.95.49,1.96,2.06,0,1.74,0,3.47,0,5.21,0,0,.01,0,.02,0Z"/>
    </g>
  </g>
</svg>