<?xml version="1.0" encoding="UTF-8"?>
<svg id="Layer_2" data-name="Layer 2" xmlns="http://www.w3.org/2000/svg" viewBox="0 0 20.96 20">
  <defs>
    <style>
      .cls-1 {
        fill: #fbfbfb;
      }
    </style>
  </defs>
  <g id="Layer_1-2" data-name="Layer 1">
    <g>
      <path class="cls-1" d="m0,10C0,8.77,0,7.53,0,6.29c0-.39.22-.61.61-.61,1.23,0,2.45,0,3.68,0,.13,0,.24-.03.35-.1.83-.51,1.66-1.03,2.49-1.54.49-.3.98-.6,1.47-.91.78-.48,1.56-.96,2.34-1.44.17-.11.34-.22.53-.31.34-.16.73.09.76.46,0,.11,0,.22,0,.34,0,1.42,0,2.84,0,4.26,0,.19-.06.32-.2.45-1.58,1.57-3.16,3.15-4.74,4.73-.88.89-1.77,1.77-2.65,2.66-.06.06-.11.09-.19.06-.08-.03-.17-.02-.25-.02-1.21,0-2.43,0-3.64,0-.27,0-.48-.15-.54-.4-.02-.07-.02-.14-.02-.22C0,12.47,0,11.24,0,10h0Z"/>
      <path class="cls-1" d="m1.73,20c-.34,0-.61-.18-.71-.43-.12-.29-.06-.58.16-.8.91-.91,1.83-1.83,2.75-2.74,3.61-3.61,7.22-7.22,10.83-10.83,1.64-1.64,3.27-3.27,4.91-4.91.14-.14.3-.26.5-.27.3-.02.59.14.71.4.13.29.08.6-.14.82-2.06,2.06-4.12,4.11-6.17,6.17-2.3,2.29-4.59,4.59-6.88,6.88-1.78,1.78-3.56,3.56-5.34,5.35-.05.05-.1.11-.16.16-.14.14-.31.21-.45.21Z"/>
      <path class="cls-1" d="m18.72,4.28c.28.34.54.7.77,1.08.47.78.82,1.62,1.04,2.51.15.62.24,1.24.25,1.88.04,1.64-.33,3.17-1.13,4.6-.59,1.05-1.36,1.95-2.3,2.69-.32.25-.66.48-1.01.69-.19.11-.39.15-.6.09-.28-.09-.45-.28-.5-.57-.05-.32.07-.56.34-.74.19-.12.38-.23.56-.36.72-.51,1.34-1.12,1.84-1.84.59-.85,1-1.78,1.21-2.8.15-.72.2-1.45.13-2.19-.14-1.41-.62-2.68-1.46-3.82q-.16-.22.03-.41c.27-.27.55-.54.83-.82Z"/>
      <path class="cls-1" d="m12.22,10.77c0,.06,0,.09,0,.13,0,2.39,0,4.78,0,7.17,0,.29-.19.5-.4.56-.17.05-.33,0-.47-.08-.21-.13-.42-.26-.63-.38-.76-.47-1.53-.94-2.29-1.41-.44-.27-.87-.54-1.31-.8-.06-.04-.02-.07,0-.1.26-.25.51-.51.77-.76,1-1,2.01-2.01,3.01-3.01.4-.4.81-.81,1.21-1.21.03-.03.05-.05.1-.09Z"/>
      <path class="cls-1" d="m16.58,6.41s.04.04.06.06c.54.76.91,1.58,1.06,2.5.25,1.51-.02,2.92-.85,4.22-.51.81-1.18,1.45-2,1.94-.21.12-.42.16-.65.08-.27-.1-.42-.31-.46-.59-.04-.29.08-.52.32-.68.18-.12.37-.23.54-.37.94-.73,1.51-1.7,1.69-2.87.18-1.11-.05-2.15-.63-3.1-.1-.16-.1-.16.04-.3.27-.28.55-.55.82-.83.02-.02.04-.03.06-.06Z"/>
      <path class="cls-1" d="m16.54,2.38c-.11.11-.22.22-.32.33-.22.22-.44.43-.65.65-.05.05-.08.06-.13,0-.25-.27-.27-.66-.06-.94.22-.29.59-.36.92-.19.08.04.16.09.25.14Z"/>
    </g>
  </g>
</svg>