<?xml version="1.0" encoding="UTF-8"?>
<svg id="Layer_2" data-name="Layer 2" xmlns="http://www.w3.org/2000/svg" viewBox="0 0 30 16.76">
  <defs>
    <style>
      .cls-1 {
        fill: #fff;
      }
    </style>
  </defs>
  <g id="Layer_1-2" data-name="Layer 1">
    <g>
      <path class="cls-1" d="m12.59,10.38c-.66.38-1.27.73-1.88,1.08-2.91,1.68-5.81,3.36-8.72,5.04-.45.26-.89.37-1.37.11-.35-.2-.55-.5-.6-.89-.01-.1-.02-.2-.02-.29C0,10.76,0,6.1,0,1.44c0-.28.01-.55.15-.8C.47.04,1.18-.18,1.78.15c.8.44,1.58.91,2.37,1.36,2.4,1.38,4.8,2.77,7.19,4.15.36.21.72.42,1.08.63.04.02.07.04.13.07,0-.06.02-.11.02-.15,0-1.62,0-3.24,0-4.86,0-.3.04-.59.22-.84.36-.51,1.02-.66,1.57-.35,1.1.62,2.19,1.25,3.28,1.88,2.61,1.51,5.22,3.01,7.83,4.52.43.25.85.51,1.29.74.88.48.84,1.67,0,2.15-2.81,1.6-5.61,3.23-8.42,4.85-1.26.73-2.53,1.45-3.78,2.19-.65.38-1.17.27-1.52-.01-.25-.2-.4-.46-.43-.78-.01-.12-.02-.24-.02-.37,0-1.56,0-3.13,0-4.69,0-.08,0-.15,0-.28Zm-10.18,3.11c2.97-1.71,5.89-3.4,8.85-5.11-2.97-1.71-5.89-3.4-8.85-5.11v10.22Zm21.43-5.11c-2.97-1.71-5.9-3.4-8.85-5.11v10.22c2.96-1.71,5.89-3.4,8.85-5.11Z"/>
      <path class="cls-1" d="m27.61,8.38c0-2.36,0-4.72,0-7.08,0-.76.53-1.23,1.06-1.29.62-.07,1.25.39,1.31,1.01.03.33.03.66.03.99,0,4.46,0,8.91,0,13.37,0,.69-.31,1.16-.89,1.32-.71.21-1.46-.32-1.5-1.05,0-.17,0-.34,0-.51,0-2.26,0-4.51,0-6.77Z"/>
    </g>
  </g>
</svg>