<?xml version="1.0" encoding="UTF-8"?>
<svg id="Layer_2" data-name="Layer 2" xmlns="http://www.w3.org/2000/svg" viewBox="0 0 22.53 20">
  <defs>
    <style>
      .cls-1 {
        fill: #fbfbfb;
      }
    </style>
  </defs>
  <g id="Layer_1-2" data-name="Layer 1">
    <g>
      <path class="cls-1" d="m2.51,17.5h4.99v2.49c-.19,0-.38,0-.57,0-1.46,0-2.92,0-4.38,0-1.05,0-1.8-.5-2.29-1.4C.06,18.23,0,17.82,0,17.4c0-1.45,0-2.9,0-4.35,0-1.58,0-3.15,0-4.73C0,6.41,0,4.51,0,2.61c0-.77.26-1.42.82-1.95.27-.25.59-.42.95-.54C2.11,0,2.47,0,2.82,0c.76,0,1.52,0,2.28,0,1.28,0,2.57,0,3.85,0,1.22,0,2.45,0,3.67,0,1.28,0,2.57,0,3.85,0,1.2,0,2.41,0,3.61.01.67,0,1.25.26,1.71.74.4.41.65.91.7,1.48.03.29.02.59.02.89,0,1.32,0,2.63,0,3.95,0,.9,0,1.8,0,2.69,0,1.33,0,2.66,0,3.99,0,1.26,0,2.51,0,3.77,0,1.18-.81,2.17-1.97,2.42-.24.05-.5.05-.75.05-1.51,0-3.02,0-4.52,0-.08,0-.17,0-.26,0v-2.49h4.99V5.01s-.05,0-.08,0c-3.79,0-7.58,0-11.37,0-1.99,0-3.98,0-5.96,0-.07,0-.1.02-.1.1,0,1.95,0,3.91,0,5.86,0,1.81,0,3.61,0,5.42,0,.36,0,.72,0,1.07,0,.01,0,.03,0,.05Z"/>
      <path class="cls-1" d="m12.52,19.99h-2.51v-7.48h-3.74s.05-.07.07-.09c.53-.53,1.06-1.06,1.59-1.59.57-.57,1.13-1.14,1.7-1.7.5-.5,1.01-1,1.51-1.5.01-.01.03-.03.04-.04.05-.06.1-.06.16,0,.52.53,1.05,1.06,1.58,1.59.57.57,1.13,1.13,1.7,1.69.53.53,1.06,1.06,1.59,1.59,0,.01.02.02.04.05h-3.73v7.49Z"/>
    </g>
  </g>
</svg>