<?xml version="1.0" encoding="UTF-8"?>
<svg id="Layer_2" data-name="Layer 2" xmlns="http://www.w3.org/2000/svg" viewBox="0 0 21.06 20">
  <defs>
    <style>
      .cls-1 {
        fill: #fff;
      }
    </style>
  </defs>
  <g id="Layer_1-2" data-name="Layer 1">
    <g>
      <path class="cls-1" d="m17.43,10.32c0,.39-.24.87-.76,1.18-1.4.83-2.82,1.65-4.23,2.47-2.61,1.5-5.22,3-7.83,4.5-.68.39-1.35.79-2.02,1.17-.87.49-1.9.21-2.37-.66-.11-.21-.17-.48-.17-.72-.02-2.08-.02-4.15-.02-6.23C.02,8.72.07,5.42,0,2.12-.03.8,1.38-.2,2.69.58c1.34.79,2.69,1.57,4.04,2.34,2.72,1.56,5.44,3.12,8.16,4.69.58.34,1.16.68,1.73,1.04.54.33.8.82.8,1.67Z"/>
      <rect class="cls-1" x="19.24" width="1.82" height="20" rx=".91" ry=".91"/>
    </g>
  </g>
</svg>