<?xml version="1.0" encoding="UTF-8"?>
<svg id="Layer_2" data-name="Layer 2" xmlns="http://www.w3.org/2000/svg" viewBox="0 0 30 16.76">
  <defs>
    <style>
      .cls-1 {
        fill: #fff;
      }
    </style>
  </defs>
  <g id="Layer_1-2" data-name="Layer 1">
    <g>
      <path class="cls-1" d="m17.41,10.65c0,1.56,0,3.13,0,4.69,0,.12,0,.25-.02.37-.03.32-.18.58-.43.78-.35.28-.88.4-1.52.01-1.25-.74-2.52-1.46-3.78-2.19-2.81-1.62-5.61-3.25-8.42-4.85-.84-.48-.89-1.67,0-2.15.44-.24.86-.5,1.29-.74,2.61-1.51,5.22-3.01,7.83-4.52,1.09-.63,2.18-1.26,3.28-1.88.55-.31,1.21-.15,1.57.35.18.25.22.54.22.84,0,1.62,0,3.24,0,4.86,0,.04.01.09.02.15.06-.03.09-.05.13-.07.36-.21.72-.42,1.08-.63,2.4-1.38,4.79-2.77,7.19-4.15.79-.46,1.58-.92,2.37-1.36.6-.33,1.31-.11,1.63.48.14.25.15.53.15.8,0,4.66,0,9.32,0,13.98,0,.1,0,.2-.02.29-.05.4-.25.7-.6.89-.48.27-.93.15-1.37-.11-2.9-1.68-5.81-3.36-8.72-5.04-.61-.35-1.22-.7-1.88-1.08,0,.12,0,.2,0,.28Zm10.18-7.38c-2.96,1.71-5.89,3.4-8.85,5.11,2.96,1.71,5.89,3.4,8.85,5.11,0-3.43,0-6.8,0-10.22Zm-12.58,10.22c0-3.42,0-6.8,0-10.22-2.95,1.71-5.88,3.4-8.85,5.11,2.96,1.71,5.89,3.4,8.85,5.11Z"/>
      <path class="cls-1" d="m2.39,8.38c0-2.36,0-4.72,0-7.08C2.4.53,1.86.07,1.34.01.71-.06.09.4.03,1.03,0,1.35,0,1.69,0,2.02,0,6.47,0,10.93,0,15.39c0,.69.31,1.16.89,1.32.71.21,1.46-.32,1.5-1.05,0-.17,0-.34,0-.51,0-2.26,0-4.51,0-6.77Z"/>
    </g>
  </g>
</svg>