<?xml version="1.0" encoding="UTF-8"?>
<svg id="Layer_2" data-name="Layer 2" xmlns="http://www.w3.org/2000/svg" viewBox="0 0 369.11 292.45">
  <g id="Layer_1-2" data-name="Layer 1">
    <g>
      <path d="m128.01,136.3c32,0,63.99,0,95.99,0,10.68,0,19.48,3.93,25.98,12.5,4.01,5.29,6.08,11.34,6.08,18.02.01,31.71.05,63.42,0,95.14-.03,14.69-10.76,27.33-25.25,29.89-2.24.4-4.55.57-6.83.57-63.79.02-127.58-.01-191.37.03-9.19,0-17.22-2.68-23.72-9.29C3.06,277.22.05,270.02.04,261.67c-.03-31.63-.04-63.26.02-94.89.03-15.17,11.38-28,26.49-30.07,2.67-.37,5.4-.39,8.1-.39,31.12-.03,62.24-.02,93.37-.02Zm.06,137.2c3.08,0,6.17,0,9.25,0,28.96,0,57.91,0,86.87.01,2.29,0,4.51-.28,6.52-1.38,4.65-2.53,6.5-6.56,6.49-11.77-.06-28.75-.03-57.5-.03-86.25,0-2.29.05-4.58,0-6.87-.1-5.82-3.79-10.45-9.42-11.64-1.69-.36-3.47-.38-5.21-.38-63.16-.02-126.32-.02-189.48-.01-.67,0-1.35-.07-2,.04-1.55.25-3.18.37-4.62.94-4.92,1.95-7.55,6.25-7.55,11.95,0,30.83-.01,61.67.02,92.5,0,1.48.17,3.02.59,4.43,1.61,5.36,6.22,8.43,12.45,8.43,32.04,0,64.08,0,96.12,0Z"/>
      <path d="m369.09,214.42c0,20.38-.01,40.75.01,61.13,0,3.73-1.42,6.7-4.66,8.53-1.39.78-3.13,1.28-4.72,1.34-4.79.17-9.58.07-14.37.05-2.11,0-3.95-.87-5.73-1.91-9.98-5.77-19.96-11.53-29.95-17.3-11.17-6.45-22.33-12.94-33.53-19.33-3.98-2.27-5.83-5.52-5.81-10.1.07-15.04.06-30.08,0-45.12-.02-4.49,1.89-7.66,5.76-9.88,15.45-8.86,30.87-17.79,46.29-26.69,5.87-3.39,11.72-6.84,17.64-10.15,1.42-.79,3.09-1.5,4.67-1.55,5.45-.17,10.92-.27,16.35.07,4.52.29,7.86,4.24,8.03,8.79.09,2.37.03,4.75.03,7.12,0,18.33,0,36.67,0,55Zm-18.88.05h.02c0-15.13,0-30.25,0-45.38,0-1.92-.02-3.83,0-5.75,0-.82-.25-1.34-1.15-1.12-.87.21-1.81.38-2.57.82-18.64,10.74-37.26,21.52-55.91,32.25-1.01.58-1.35,1.22-1.35,2.36.04,11.08.04,22.17-.01,33.25,0,1.25.34,1.96,1.43,2.58,16.71,9.6,33.39,19.24,50.08,28.87,2.27,1.31,4.51,2.68,6.83,3.9,1.81.95,2.62.42,2.62-1.53,0-16.75,0-33.5,0-50.25Z"/>
      <path d="m194.14,124.02c-33.14.17-61.3-26.35-62.02-60.66C131.4,28.71,158.96.36,193.52.03c34.18-.32,62.16,27.27,62.61,61.01.46,34.41-27.31,63.07-61.99,62.97Zm.06-18.87c23.92-.1,43.05-19.42,42.98-43.42-.06-23.65-19.53-42.97-43.36-42.78-24.4.2-42.98,20.16-42.81,43.47.17,23.55,19.6,42.83,43.19,42.73Z"/>
      <path d="m62.11,0c34.14.01,61.94,27.91,61.9,62.12-.04,34.71-28.47,62.31-62.79,61.93C27.72,123.68-.24,96.05,0,61.42.23,27.7,28.09-.01,62.11,0Zm42.98,62.1c.07-22.99-18.27-42.88-42.75-43.15-23.86-.27-43.43,19.21-43.44,42.98,0,23.91,19.25,43.18,43.2,43.23,23.59.05,42.9-19.29,42.99-43.05Z"/>
    </g>
  </g>
</svg>