<?xml version="1.0" encoding="UTF-8"?>
<svg id="Layer_2" data-name="Layer 2" xmlns="http://www.w3.org/2000/svg" viewBox="0 0 11.25 286">
  <defs>
    <style>
      .cls-1 {
        fill: none;
        stroke: #fff;
        stroke-miterlimit: 10;
      }
    </style>
  </defs>
  <g id="Layer_1-2" data-name="Layer 1">
    <g>
      <line class="cls-1" y1="285.5" x2="11" y2="285.5"/>
      <line class="cls-1" x1=".25" y1="150.5" x2="11.25" y2="150.5"/>
      <line class="cls-1" x1="4.47" y1="270.5" x2="11" y2="270.5"/>
      <line class="cls-1" x1="4.47" y1="255.5" x2="11" y2="255.5"/>
      <line class="cls-1" x1="4.47" y1="240.5" x2="11" y2="240.5"/>
      <line class="cls-1" x1="3.09" y1="225.5" x2="11" y2="225.5"/>
      <line class="cls-1" x1="4.47" y1="210.5" x2="11" y2="210.5"/>
      <line class="cls-1" x1="4.47" y1="195.5" x2="11" y2="195.5"/>
      <line class="cls-1" x1="4.47" y1="180.5" x2="11" y2="180.5"/>
      <line class="cls-1" x1="4.47" y1="165.5" x2="11" y2="165.5"/>
      <line class="cls-1" y1=".5" x2="11" y2=".5"/>
      <line class="cls-1" x1="4.47" y1="135.5" x2="11" y2="135.5"/>
      <line class="cls-1" x1="4.47" y1="120.5" x2="11" y2="120.5"/>
      <line class="cls-1" x1="4.47" y1="105.5" x2="11" y2="105.5"/>
      <line class="cls-1" x1="4.47" y1="90.5" x2="11" y2="90.5"/>
      <line class="cls-1" x1="3.09" y1="75.5" x2="11" y2="75.5"/>
      <line class="cls-1" x1="4.47" y1="60.5" x2="11" y2="60.5"/>
      <line class="cls-1" x1="4.47" y1="45.5" x2="11" y2="45.5"/>
      <line class="cls-1" x1="4.47" y1="30.5" x2="11" y2="30.5"/>
      <line class="cls-1" x1="4.47" y1="15.5" x2="11" y2="15.5"/>
    </g>
  </g>
</svg>