<?xml version="1.0" encoding="utf-8"?>
<!-- Generator: Adobe Illustrator 27.5.0, SVG Export Plug-In . SVG Version: 6.00 Build 0)  -->
<svg version="1.1" id="Layer_2_00000003825720109533834760000002835323759038117526_"
	 xmlns="http://www.w3.org/2000/svg" xmlns:xlink="http://www.w3.org/1999/xlink" x="0px" y="0px" viewBox="0 0 138.7 117.2"
	 style="enable-background:new 0 0 138.7 117.2;" xml:space="preserve">
<g id="Layer_1-2">
	<g>
		<path d="M90.5,64.9c1.8,1.7,3.8,3.3,5.4,5.2c1.4,1.6,2.8,2.5,5.1,2.1c2.1-0.4,3.9,0.6,5.4,2.1c3.6,3.6,7.3,7.2,10.9,10.8
			c6.1,6.1,12.2,12.3,18.4,18.4c2.1,2.1,3.3,4.3,2.9,7.3c-0.8,5.5-7.2,8.2-11.6,4.9c-0.7-0.5-1.3-1.1-1.9-1.7
			c-9.2-9.2-18.3-18.3-27.5-27.5c-0.7-0.7-1.4-1.4-2-2.2c-1.7-2-2.2-4.2-1.6-6.8c0.1-0.4,0-0.9-0.2-1.2c-2.3-2.3-4.6-4.6-6.9-6.9
			c-0.1-0.1-0.3-0.2-0.5-0.3c-8.7,7.2-18.6,10.6-29.9,9.4c-10.4-1.1-19.1-5.8-25.8-13.8c-13.4-16-12.3-37.4,1.3-52
			c14-15,36.3-17.1,53-3.9c5.6,4.4,9.7,10,12.2,16.7c2.6,6.6,3.3,13.5,2.1,20.5C98.2,52.9,95.4,59.2,90.5,64.9L90.5,64.9z M93.3,39
			c0.4-17-14.6-33.5-34.9-32.2c-15.3,1-30.7,13.6-30.4,33.3c0.3,19.2,16.3,32.6,33.5,32C79.2,71.6,93.7,57.3,93.3,39L93.3,39z"/>
		<path d="M61.5,13.6c6.9-0.5,12.8,1.6,17.8,6.4c5.1,5,8.1,10.9,7.2,18.2C83.5,24.5,75.3,16.3,61.5,13.6z"/>
	</g>
</g>
</svg>
