<?xml version="1.0" encoding="UTF-8"?>
<svg id="Layer_2" data-name="Layer 2" xmlns="http://www.w3.org/2000/svg" viewBox="0 0 189.91 161.71">
  <g id="Layer_1-2" data-name="Layer 1">
    <path d="m126.6,32.81c2.05-1.36,3.8-2.53,5.56-3.7,12.76-8.55,25.53-17.09,38.27-25.66,2.23-1.5,4.55-2.69,7.21-3.23,5.88-1.19,11.69,3.15,12.16,9.17.07.95.06,1.91.06,2.87,0,45.96-.02,91.91.05,137.87.01,6.31-3.6,9.98-7.73,11.17-2.29.66-4.6.46-6.65-.69-3.25-1.82-6.45-3.76-9.55-5.82-12.82-8.54-25.59-17.15-38.39-25.73-.23-.16-.49-.28-.92-.51-.04.6-.1,1.08-.1,1.55-.01,7,.03,14-.03,21-.04,3.6-1.61,6.47-4.5,8.63-2.85,2.13-6.01,2.6-9.15,1.12-3.02-1.42-5.9-3.2-8.69-5.06-20.83-13.89-41.62-27.83-62.43-41.76-12.04-8.06-24.09-16.11-36.12-24.18-2.05-1.37-3.96-2.9-4.89-5.33-1.78-4.62-.42-9.43,3.71-12.24,7.44-5.08,14.96-10.04,22.44-15.06,16.66-11.16,33.31-22.33,49.97-33.5,10.55-7.07,21.1-14.15,31.68-21.18,2.95-1.96,6.25-3.02,9.8-2.36,4.61.86,8.06,5.19,8.15,10.2.12,6.79.06,13.58.08,20.37,0,.57,0,1.14,0,2.04Zm-34.82,47.83c25.88,17.32,51.62,34.55,77.48,51.86V28.78c-25.95,17.37-51.65,34.57-77.48,51.86Zm14.11-51.77c-25.92,17.34-51.59,34.52-77.37,51.77,25.87,17.31,51.57,34.51,77.38,51.78,0-5.79.02-11.49-.03-17.18,0-.38-.42-.87-.78-1.11-12.19-8.2-24.41-16.35-36.58-24.59-1.41-.96-2.79-2.2-3.7-3.62-3.03-4.73-1.58-10.57,3.44-14.04,5.71-3.93,11.51-7.72,17.26-11.59,6.58-4.42,13.16-8.85,19.71-13.3.32-.22.64-.71.64-1.08.04-5.58.03-11.15.03-17.04Z"/>
  </g>
</svg>