<?xml version="1.0" encoding="UTF-8"?>
<svg id="Layer_2" data-name="Layer 2" xmlns="http://www.w3.org/2000/svg" viewBox="0 0 16.79 18">
  <defs>
    <style>
      .cls-1 {
        fill: #fbfbfb;
      }
    </style>
  </defs>
  <g id="Layer_1-2" data-name="Layer 1">
    <g>
      <path class="cls-1" d="m2.46,3c.31,0,.59.1.88.19.09.03.19.06.28.08.18.05.36.02.51-.09.44-.31.9-.58,1.39-.8.18-.08.28-.23.33-.42.07-.29.12-.59.22-.87C6.25.51,6.95.04,7.56.02c.54-.02,1.08-.03,1.62,0,.81.04,1.48.62,1.65,1.41.04.18.08.36.12.54.05.21.17.35.36.44.46.2.89.45,1.3.75.21.15.42.19.67.1.22-.08.44-.14.67-.2.72-.18,1.48.14,1.85.78.25.43.5.86.75,1.3.42.75.29,1.57-.35,2.16-.14.13-.28.26-.42.39-.16.15-.23.33-.2.55.05.51.05,1.02,0,1.53-.02.22.05.4.21.55.16.15.33.3.49.46.54.52.68,1.34.32,1.99-.26.49-.54.97-.83,1.44-.4.66-1.19.93-1.97.7-.2-.06-.39-.12-.59-.18-.19-.06-.38-.03-.54.09-.42.3-.87.56-1.34.78-.18.08-.32.22-.37.41-.07.3-.12.62-.23.91-.27.67-.78,1.04-1.5,1.07-.55.03-1.11.03-1.66,0-.78-.04-1.44-.63-1.59-1.39-.04-.18-.08-.36-.12-.54-.05-.22-.18-.37-.38-.47-.46-.21-.89-.46-1.3-.75-.18-.13-.38-.17-.59-.1-.26.08-.52.17-.79.23-.69.16-1.4-.17-1.76-.77-.26-.43-.51-.86-.75-1.3-.4-.72-.27-1.62.33-2.19.14-.13.27-.25.41-.38.17-.15.24-.34.22-.57-.05-.49-.06-.98,0-1.48.03-.25-.05-.45-.23-.62-.19-.17-.37-.34-.55-.52-.48-.5-.58-1.25-.26-1.86.27-.51.56-1.02.87-1.51.32-.51.81-.75,1.41-.77Zm11.81,10.93c.31,0,.49-.11.61-.32.25-.43.5-.86.75-1.3.17-.3.12-.59-.13-.83-.14-.13-.29-.26-.43-.4-.42-.39-.61-.88-.55-1.45.05-.43.05-.86,0-1.28-.06-.58.12-1.06.54-1.46.15-.14.3-.27.45-.41.25-.23.29-.52.13-.82-.07-.14-.15-.27-.23-.4-.18-.3-.34-.61-.53-.91-.16-.26-.44-.35-.73-.26-.18.05-.36.11-.54.17-.55.18-1.07.12-1.55-.22-.38-.27-.79-.5-1.22-.7-.47-.22-.76-.59-.89-1.09-.06-.22-.1-.43-.15-.65-.07-.32-.31-.53-.64-.53-.5,0-.99,0-1.49,0-.32,0-.56.21-.63.51-.05.2-.09.41-.14.61-.13.56-.46.95-.98,1.19-.39.18-.76.39-1.11.64-.43.31-.9.41-1.42.28-.23-.06-.45-.13-.67-.2-.34-.1-.62,0-.8.3-.25.42-.49.85-.73,1.27-.16.28-.11.58.12.8.15.15.31.28.46.43.42.4.6.89.54,1.46-.05.42-.05.84,0,1.25.06.59-.12,1.08-.55,1.48-.15.14-.29.27-.44.41-.23.22-.29.5-.14.77.25.46.51.9.78,1.35.16.27.44.36.74.27.17-.05.35-.1.52-.16.56-.19,1.08-.12,1.56.21.37.26.77.49,1.18.68.5.23.81.62.94,1.16.05.2.09.4.14.6.08.34.31.53.66.53.49,0,.99,0,1.48,0,.3,0,.55-.2.62-.5.04-.15.07-.31.1-.46.12-.62.44-1.09,1.03-1.35.4-.18.78-.4,1.14-.66.26-.19.55-.29.87-.32.25-.02.49.04.73.11.23.07.46.14.62.19Z"/>
      <path class="cls-1" d="m7.5,5.39c2.46-.57,4.62,1.26,4.62,3.65,0,2.04-1.66,3.65-3.64,3.69-2.35.04-4.23-2.08-3.71-4.55.29-1.36,1.38-2.47,2.73-2.79Zm3.56,3.62c0-1.46-1.18-2.65-2.65-2.66-1.72-.01-3.1,1.68-2.53,3.49.25.79.88,1.43,1.66,1.68,1.81.6,3.51-.76,3.52-2.51Z"/>
    </g>
  </g>
</svg>