<?xml version="1.0" encoding="UTF-8"?>
<svg id="Layer_2" data-name="Layer 2" xmlns="http://www.w3.org/2000/svg" viewBox="0 0 20.92 20">
  <defs>
    <style>
      .cls-1 {
        fill: #fbfbfb;
      }
    </style>
  </defs>
  <g id="Layer_1-2" data-name="Layer 1">
    <g>
      <path class="cls-1" d="m.09,9.67c.07.06.14.12.21.19.65.72,1.39,1.32,2.28,1.73,1,.46,2.06.67,3.16.67,1.91,0,3.81,0,5.72,0,.11,0,.13-.04.13-.14,0-.38,0-.76,0-1.14,0-1.06,1.05-1.67,1.97-1.15,1.07.6,2.12,1.22,3.18,1.84,1.15.67,2.31,1.33,3.46,1.99.44.25.7.61.71,1.12.02.54-.24.93-.7,1.2-.6.34-1.19.69-1.79,1.03-1.6.93-3.21,1.84-4.81,2.78-.7.41-1.42.17-1.77-.3-.18-.24-.26-.51-.26-.81,0-.39,0-.77,0-1.16,0-.12-.04-.15-.15-.15-1.85,0-3.7.04-5.55,0-1.48-.04-2.86-.49-4.01-1.47-.75-.64-1.19-1.5-1.48-2.43C.06,12.35-.05,11.2.03,10.04c0-.12.02-.24.02-.36.01,0,.03-.01.04-.02Z"/>
      <path class="cls-1" d="m20.83,10.33c-.06-.05-.12-.09-.17-.14-.24-.24-.48-.5-.73-.73-.94-.85-2.06-1.34-3.3-1.58-.69-.13-1.38-.15-2.08-.15-1.38,0-2.77,0-4.15,0-.31,0-.62,0-.93,0-.1,0-.13.04-.13.14,0,.45.02.9-.02,1.35-.07.84-1.01,1.38-1.77,1.02-.43-.2-.84-.46-1.25-.7-1.87-1.08-3.73-2.15-5.6-3.23-.92-.54-.93-1.75,0-2.28C2.9,2.75,5.12,1.49,7.33.2c.82-.48,1.78-.03,1.97.81.03.11.03.23.04.34,0,.39,0,.77,0,1.16,0,.1.04.12.13.12.27,0,.55,0,.82,0,1.53,0,3.07-.01,4.6,0,1.32.02,2.55.38,3.67,1.09.73.47,1.25,1.13,1.62,1.91.44.92.66,1.89.72,2.9.03.52,0,1.05,0,1.57,0,.07-.01.14-.02.21l-.04.03Z"/>
    </g>
  </g>
</svg>