<?xml version="1.0" encoding="UTF-8"?>
<svg id="Layer_2" data-name="Layer 2" xmlns="http://www.w3.org/2000/svg" viewBox="0 0 304.43 321.81">
  <g id="Layer_1-2" data-name="Layer 1">
    <g>
      <path d="m203.02,161.44c0,47.16-.06,94.33.05,141.49.02,8.27-3.32,14.27-10.77,17.49-7.78,3.36-14.12.27-19.76-5.39-26.7-26.8-53.59-53.41-80.12-80.38-4.36-4.44-8.64-6.13-14.76-6.01-19.16.37-38.33.16-57.49.13C6.61,228.74,0,222.05,0,208.43c0-32-.01-64,0-95.99,0-12.23,6.9-19.26,19.16-19.31,20.33-.09,40.66-.13,61,.06,4.28.04,7.36-1.09,10.46-4.22,27.33-27.59,54.82-55.01,82.32-82.43,8.61-8.59,19.26-8.85,25.93.07,2.55,3.41,3.96,8.51,3.98,12.85.27,47.33.17,94.66.17,141.99Z"/>
      <path d="m304.23,157.86c2.29,26.96-15.66,55.53-41.02,65.31-7.63,2.94-16.15.13-20.53-6.78-4.19-6.61-3.3-14.84,2.77-20.37,3.67-3.34,7.88-6.1,11.99-8.92,18.13-12.43,18.2-39.78.11-52.25-3.97-2.73-8.06-5.37-11.64-8.56-6.54-5.83-7.56-14.3-3.02-21.12,4.73-7.1,13.62-9.64,21.6-5.96,24.41,11.26,37.25,30.6,39.63,57.15.04.5.07,1,.11,1.49Z"/>
    </g>
  </g>
</svg>