<?xml version="1.0" encoding="UTF-8"?>
<svg id="Layer_2" data-name="Layer 2" xmlns="http://www.w3.org/2000/svg" viewBox="0 0 440.82 376.12">
  <g id="Layer_1-2" data-name="Layer 1">
    <g>
      <path d="m203.02,188.71c0,47.16-.06,94.33.05,141.49.02,8.27-3.32,14.27-10.77,17.49-7.78,3.36-14.12.27-19.76-5.39-26.7-26.8-53.59-53.41-80.12-80.38-4.36-4.44-8.64-6.13-14.76-6.01-19.16.37-38.33.16-57.49.13C6.61,256.01,0,249.32,0,235.7c0-32-.01-64,0-95.99,0-12.23,6.9-19.26,19.16-19.31,20.33-.09,40.66-.13,61,.06,4.28.04,7.36-1.09,10.46-4.22,27.33-27.59,54.82-55.01,82.32-82.43,8.61-8.59,19.26-8.85,25.93.07,2.55,3.41,3.96,8.51,3.98,12.85.27,47.33.17,94.66.17,141.99Z"/>
      <path d="m440.82,186.03c-5,87.88-43.98,150.74-122.09,188-9.75,4.65-19.48,1.31-23.79-7.61-4.16-8.6-.24-17.93,9.54-23.18,9.22-4.95,18.84-9.34,27.41-15.25,42.88-29.56,68.02-70.43,73.04-122.23,6.06-62.67-16.89-113.79-66.34-152.56-9.84-7.71-21.55-13.07-32.56-19.23-5.24-2.93-10-6.14-11.91-12.1-1.94-6.05-.52-11.53,3.83-16.13,4.47-4.73,10.25-7.26,16.27-4.73,10.23,4.31,20.54,8.85,29.87,14.78,47.44,30.15,77.9,72.81,90.75,127.51,3.44,14.64,4.26,29.9,6,42.73Z"/>
      <path d="m372.35,194.8c-2.97,50.13-28.24,92.07-79.87,116.97-6.47,3.12-12.89,3.35-18.88-1.09-5.59-4.14-7.74-9.78-6.64-16.68,1-6.24,5.34-9.63,10.3-12.68,8.34-5.13,17.13-9.75,24.75-15.81,19.29-15.34,30.64-35.79,34.82-59.92,7.59-43.82-13.27-85.74-52.53-106.68-2.94-1.57-5.87-3.14-8.7-4.9-8.55-5.31-11.41-14.29-7.21-22.28,4.38-8.33,13.52-11.52,22.68-7.66,12.52,5.27,24.09,12.21,34.18,21.31,30.54,27.53,46.52,61.77,47.1,109.43Z"/>
      <path d="m304.23,185.12c2.29,26.96-15.66,55.53-41.02,65.31-7.63,2.94-16.15.13-20.53-6.78-4.19-6.61-3.3-14.84,2.77-20.37,3.67-3.34,7.88-6.1,11.99-8.92,18.13-12.43,18.2-39.78.11-52.25-3.97-2.73-8.06-5.37-11.64-8.56-6.54-5.83-7.56-14.3-3.02-21.12,4.73-7.1,13.62-9.64,21.6-5.96,24.41,11.26,37.25,30.6,39.63,57.15.04.5.07,1,.11,1.49Z"/>
    </g>
  </g>
</svg>